<?xml version="1.0" encoding="UTF-8"?>
<!-- Generator: visioncortex VTracer 0.6.12 -->
<svg version="1.1" xmlns="http://www.w3.org/2000/svg" width="512" height="512">
<path d="M0 0 C1.918 3.487 2.005 6.649 1.375 10.5 C0.068 13.306 -1.727 15.628 -3.625 18.062 C-4.736 19.56 -5.845 21.059 -6.953 22.559 C-7.549 23.355 -8.146 24.152 -8.76 24.972 C-12.066 29.452 -15.21 34.045 -18.375 38.625 C-19.744 40.597 -21.114 42.568 -22.484 44.539 C-23.17 45.526 -23.855 46.512 -24.561 47.528 C-27.913 52.354 -31.269 57.177 -34.625 62 C-35.958 63.917 -37.292 65.833 -38.625 67.75 C-78.625 125.25 -118.625 182.75 -158.625 240.25 C-159.286 241.2 -159.946 242.149 -160.627 243.128 C-161.954 245.035 -163.28 246.942 -164.607 248.849 C-168.044 253.787 -171.477 258.728 -174.906 263.672 C-175.613 264.69 -176.319 265.707 -177.047 266.756 C-178.381 268.678 -179.715 270.601 -181.047 272.525 C-184.322 277.243 -187.626 281.939 -190.969 286.609 C-191.62 287.522 -192.272 288.434 -192.943 289.374 C-195.18 292.202 -196.166 292.427 -199.75 293 C-207.538 291.995 -212.861 284.3 -218.172 278.875 C-218.755 278.28 -219.338 277.685 -219.938 277.071 C-222.375 274.579 -224.81 272.087 -227.227 269.576 C-229.01 267.727 -230.808 265.894 -232.609 264.062 C-233.154 263.489 -233.699 262.915 -234.26 262.324 C-238.049 258.508 -238.049 258.508 -240.718 258.47 C-242.964 259.683 -245.06 260.966 -247.16 262.422 C-248.042 263.029 -248.924 263.635 -249.833 264.26 C-250.775 264.917 -251.717 265.573 -252.688 266.25 C-253.178 266.588 -253.178 266.588 -255.657 268.298 C-257.678 269.692 -259.697 271.087 -261.714 272.485 C-265.901 275.383 -270.107 278.254 -274.312 281.125 C-279.059 284.371 -283.803 287.621 -288.539 290.883 C-292.494 293.605 -296.461 296.308 -300.434 299.003 C-302.53 300.435 -304.607 301.891 -306.684 303.352 C-307.913 304.194 -309.144 305.035 -310.375 305.875 C-310.898 306.24 -310.898 306.24 -313.547 308.086 C-317.435 309.872 -319.539 309.633 -323.625 308.5 C-327.375 305.948 -327.907 301.733 -328.953 297.582 C-329.175 296.738 -329.396 295.895 -329.625 295.026 C-330.385 292.124 -331.13 289.218 -331.875 286.312 C-332.423 284.208 -332.972 282.104 -333.522 280.001 C-334.801 275.101 -336.074 270.199 -337.343 265.297 C-339.984 255.1 -342.651 244.909 -345.316 234.719 C-346.334 230.83 -347.351 226.941 -348.368 223.052 C-348.495 222.566 -348.495 222.566 -349.138 220.107 C-351.138 212.46 -353.134 204.813 -355.128 197.165 C-356.305 192.649 -357.485 188.134 -358.669 183.619 C-359.124 181.885 -359.579 180.151 -360.034 178.417 C-360.254 177.577 -360.474 176.738 -360.701 175.874 C-361.951 171.1 -363.185 166.322 -364.4 161.539 C-365.118 158.72 -365.844 155.904 -366.573 153.088 C-367.057 151.203 -367.528 149.314 -367.999 147.426 C-368.289 146.31 -368.579 145.195 -368.878 144.046 C-369.121 143.087 -369.364 142.129 -369.614 141.142 C-371.334 136.647 -374.418 133.481 -378.062 130.438 C-381.745 127.288 -385.322 124.044 -388.875 120.75 C-389.43 120.236 -389.986 119.722 -390.558 119.192 C-391.69 118.144 -392.822 117.095 -393.954 116.046 C-400.933 109.589 -407.961 103.188 -415.035 96.836 C-418.056 94.111 -421.062 91.372 -424.062 88.625 C-424.317 88.393 -424.317 88.393 -425.604 87.217 C-426.949 85.983 -428.287 84.742 -429.625 83.5 C-430.224 82.969 -430.824 82.438 -431.441 81.891 C-432.625 80.5 -432.625 80.5 -433.125 77.125 C-432.477 72.427 -431.349 71.398 -427.625 68.5 C-424.35 67.365 -421.028 66.858 -417.609 66.332 C-417.095 66.245 -417.095 66.245 -414.495 65.803 C-411.006 65.215 -407.513 64.657 -404.02 64.098 C-401.463 63.673 -398.906 63.246 -396.349 62.817 C-390.723 61.877 -385.094 60.952 -379.464 60.035 C-371.086 58.672 -362.712 57.284 -354.339 55.891 C-350.272 55.214 -346.205 54.538 -342.138 53.862 C-341.306 53.723 -340.474 53.585 -339.617 53.443 C-333.479 52.423 -327.341 51.408 -321.203 50.394 C-289.974 45.236 -258.759 40 -227.547 34.746 C-226.296 34.535 -225.044 34.325 -223.755 34.108 C-212.331 32.185 -200.906 30.261 -189.481 28.337 C-173.186 25.593 -156.89 22.852 -140.593 20.115 C-136.952 19.503 -133.31 18.891 -129.669 18.279 C-119.423 16.558 -109.178 14.837 -98.932 13.116 C-94.783 12.42 -90.635 11.722 -86.486 11.025 C-83.49 10.522 -80.493 10.02 -77.496 9.518 C-68.257 7.968 -59.021 6.401 -49.793 4.788 C-45.463 4.031 -41.132 3.279 -36.801 2.528 C-34.752 2.17 -32.703 1.81 -30.656 1.446 C-27.825 0.943 -24.992 0.451 -22.159 -0.04 C-21.338 -0.189 -20.518 -0.338 -19.672 -0.491 C-5.188 -2.964 -5.188 -2.964 0 0 Z M-111.96 31.46 C-113.243 31.673 -114.526 31.887 -115.848 32.107 C-117.267 32.348 -118.686 32.588 -120.106 32.829 C-121.612 33.081 -123.118 33.333 -124.625 33.585 C-128.748 34.275 -132.87 34.97 -136.993 35.666 C-141.397 36.409 -145.803 37.147 -150.208 37.886 C-158.746 39.318 -167.282 40.755 -175.819 42.193 C-182.699 43.353 -189.58 44.511 -196.46 45.668 C-197.434 45.831 -198.408 45.995 -199.411 46.164 C-201.381 46.495 -203.352 46.826 -205.322 47.158 C-221.192 49.826 -237.061 52.498 -252.929 55.172 C-269.853 58.024 -286.778 60.87 -303.704 63.707 C-315.496 65.684 -327.288 67.665 -339.079 69.65 C-345.784 70.779 -352.489 71.906 -359.195 73.028 C-365.395 74.065 -371.593 75.109 -377.791 76.157 C-380.028 76.534 -382.266 76.909 -384.504 77.282 C-387.515 77.784 -390.524 78.294 -393.533 78.805 C-394.407 78.949 -395.281 79.093 -396.181 79.241 C-396.58 79.31 -396.58 79.31 -398.601 79.657 C-399.287 79.773 -399.973 79.888 -400.679 80.007 C-402.855 80.558 -404.657 81.434 -406.625 82.5 C-389.59 98.613 -389.59 98.613 -382.027 105.348 C-378.141 108.83 -374.316 112.38 -370.484 115.922 C-370.013 116.347 -370.013 116.347 -367.625 118.5 C-367.182 119.01 -366.739 119.52 -366.283 120.045 C-364.891 121.516 -364.891 121.516 -361.625 123.5 C-358.066 123.276 -354.919 121.79 -351.625 120.5 C-349.498 119.756 -347.365 119.033 -345.231 118.309 C-340.915 116.838 -336.615 115.321 -332.312 113.812 C-330.39 113.14 -328.467 112.468 -326.544 111.795 C-308.69 105.545 -290.868 99.206 -273.049 92.856 C-261.244 88.65 -249.432 84.46 -237.62 80.27 C-233.678 78.872 -229.736 77.473 -225.793 76.074 C-213.641 71.762 -201.488 67.451 -189.334 63.143 C-182.618 60.762 -175.903 58.381 -169.188 56 C-168.539 55.77 -167.89 55.54 -167.221 55.303 C-145.003 47.423 -122.802 39.496 -100.625 31.5 C-100.625 31.17 -100.625 30.84 -100.625 30.5 C-104.521 30.389 -108.119 30.814 -111.96 31.46 Z M-45.691 40.613 C-46.725 41.278 -47.759 41.944 -48.824 42.629 C-49.945 43.357 -51.066 44.085 -52.188 44.812 C-53.338 45.555 -54.489 46.297 -55.641 47.039 C-58.972 49.187 -62.299 51.343 -65.625 53.5 C-67.144 54.483 -68.664 55.466 -70.184 56.449 C-72.155 57.725 -74.127 59.001 -76.097 60.279 C-82.359 64.339 -88.649 68.356 -94.938 72.375 C-102.519 77.221 -110.087 82.086 -117.625 87 C-126.238 92.616 -134.894 98.163 -143.559 103.699 C-149.425 107.449 -155.284 111.21 -161.125 115 C-168.043 119.489 -174.988 123.935 -181.938 128.375 C-189.519 133.221 -197.087 138.086 -204.625 143 C-212.163 147.914 -219.731 152.779 -227.312 157.625 C-235.621 162.936 -243.928 168.248 -252.191 173.629 C-255.703 175.913 -259.239 178.16 -262.777 180.402 C-264.914 181.768 -267.051 183.134 -269.188 184.5 C-270.219 185.148 -271.25 185.796 -272.313 186.463 C-272.788 186.768 -272.788 186.768 -275.191 188.312 C-276.047 188.855 -276.902 189.398 -277.783 189.957 C-278.087 190.212 -278.087 190.212 -279.625 191.5 C-279.625 194.5 -279.625 194.5 -278.407 196.087 C-277.832 196.66 -277.256 197.232 -276.664 197.822 C-276.008 198.482 -275.351 199.143 -274.675 199.823 C-274.31 200.183 -274.31 200.183 -272.465 202.001 C-271.704 202.762 -270.943 203.523 -270.159 204.307 C-267.634 206.831 -265.098 209.343 -262.562 211.855 C-260.813 213.599 -259.064 215.344 -257.316 217.089 C-252.706 221.687 -248.088 226.276 -243.467 230.864 C-238.756 235.543 -234.054 240.232 -229.352 244.92 C-220.118 254.122 -210.875 263.314 -201.625 272.5 C-198.182 268.209 -194.906 263.836 -191.688 259.375 C-191.117 258.584 -190.546 257.794 -189.958 256.979 C-185.446 250.7 -181.055 244.345 -176.707 237.952 C-172.447 231.691 -168.141 225.464 -163.812 219.25 C-163.141 218.286 -162.47 217.322 -161.778 216.329 C-160.41 214.366 -159.042 212.403 -157.673 210.439 C-154.321 205.628 -150.973 200.814 -147.625 196 C-146.292 194.083 -144.958 192.167 -143.625 190.25 C-142.965 189.301 -142.305 188.352 -141.625 187.375 C-118.292 153.833 -94.958 120.292 -71.625 86.75 C-71.295 86.275 -71.295 86.275 -69.622 83.871 C-68.298 81.967 -66.974 80.064 -65.649 78.16 C-62.178 73.17 -58.707 68.179 -55.238 63.188 C-54.518 62.152 -53.798 61.116 -53.057 60.049 C-51.684 58.074 -50.311 56.099 -48.939 54.123 C-48.628 53.675 -48.628 53.675 -47.051 51.406 C-46.466 50.564 -45.882 49.723 -45.28 48.855 C-43.769 46.705 -42.224 44.586 -40.668 42.469 C-38.625 39.5 -38.625 39.5 -38.625 37.5 C-41.6 37.5 -43.205 39.006 -45.691 40.613 Z M-79.143 40.006 C-80.09 40.339 -81.037 40.671 -82.013 41.014 C-83.05 41.382 -84.087 41.75 -85.156 42.129 C-86.237 42.509 -87.317 42.89 -88.431 43.282 C-91.997 44.539 -95.561 45.801 -99.125 47.062 C-101.614 47.941 -104.103 48.82 -106.592 49.698 C-122.445 55.296 -138.284 60.932 -154.112 66.598 C-169.523 72.114 -184.948 77.591 -200.375 83.062 C-201.701 83.533 -203.026 84.003 -204.352 84.473 C-211.758 87.1 -219.165 89.727 -226.571 92.353 C-238.985 96.755 -251.399 101.158 -263.812 105.562 C-264.444 105.787 -265.075 106.011 -265.726 106.241 C-295.034 116.639 -324.331 127.066 -353.625 137.5 C-350.546 150.948 -347.135 164.3 -343.652 177.648 C-343.082 179.84 -342.512 182.031 -341.942 184.223 C-340.756 188.783 -339.568 193.343 -338.38 197.903 C-336.863 203.722 -335.348 209.542 -333.834 215.362 C-332.378 220.958 -330.922 226.553 -329.465 232.148 C-329.191 233.201 -328.917 234.253 -328.635 235.337 C-327.854 238.339 -327.071 241.34 -326.289 244.341 C-326.063 245.21 -325.837 246.079 -325.604 246.974 C-323.989 253.162 -322.318 259.333 -320.625 265.5 C-319.965 265.5 -319.305 265.5 -318.625 265.5 C-318.419 264.586 -318.212 263.672 -318 262.731 C-316.052 254.107 -314.095 245.486 -312.131 236.866 C-311.121 232.434 -310.115 228.002 -309.115 223.569 C-308.149 219.288 -307.175 215.009 -306.197 210.731 C-305.825 209.101 -305.456 207.47 -305.091 205.839 C-304.576 203.549 -304.052 201.261 -303.526 198.974 C-303.452 198.639 -303.452 198.639 -303.077 196.943 C-301.606 190.635 -299.868 185.846 -294.299 182.231 C-293.706 181.866 -293.112 181.501 -292.5 181.125 C-292.181 180.92 -292.181 180.92 -290.564 179.885 C-289.099 178.948 -287.63 178.019 -286.158 177.094 C-283.319 175.307 -280.495 173.497 -277.672 171.684 C-273.35 168.909 -269.025 166.141 -264.695 163.379 C-259.826 160.271 -254.97 157.145 -250.125 154 C-243.144 149.47 -236.137 144.982 -229.125 140.5 C-219.27 134.199 -209.437 127.867 -199.625 121.5 C-188.725 114.427 -177.794 107.403 -166.846 100.404 C-160.928 96.619 -155.018 92.823 -149.125 89 C-141.055 83.764 -132.949 78.584 -124.844 73.402 C-118.279 69.204 -111.724 64.991 -105.191 60.742 C-101.408 58.286 -97.61 55.852 -93.798 53.439 C-91.482 51.972 -89.168 50.502 -86.853 49.033 C-85.707 48.306 -84.559 47.581 -83.41 46.858 C-81.802 45.846 -80.198 44.827 -78.594 43.809 C-77.66 43.219 -76.726 42.629 -75.764 42.021 C-73.625 40.5 -73.625 40.5 -72.625 38.5 C-75.086 38.5 -76.817 39.185 -79.143 40.006 Z M-289.625 207.5 C-295.235 231.92 -300.845 256.34 -306.625 281.5 C-302.386 281.5 -299.954 279.189 -296.625 276.812 C-295.177 275.798 -293.729 274.783 -292.281 273.77 C-291.901 273.502 -291.901 273.502 -289.977 272.147 C-286.841 269.951 -283.681 267.79 -280.519 265.633 C-278.923 264.545 -277.329 263.454 -275.737 262.361 C-271.798 259.657 -267.846 256.976 -263.863 254.336 C-263.117 253.836 -262.371 253.337 -261.602 252.822 C-260.189 251.878 -258.771 250.941 -257.348 250.014 C-255.719 248.919 -254.163 247.718 -252.625 246.5 C-252.625 243.5 -252.625 243.5 -253.985 241.773 C-254.621 241.14 -255.258 240.507 -255.914 239.855 C-256.631 239.134 -257.349 238.414 -258.088 237.671 C-258.48 237.285 -258.48 237.285 -260.465 235.332 C-261.262 234.537 -262.058 233.742 -262.879 232.924 C-264.566 231.243 -266.257 229.566 -267.951 227.893 C-270.555 225.32 -273.149 222.736 -275.74 220.15 C-277.377 218.523 -279.014 216.896 -280.652 215.27 C-281.435 214.491 -282.217 213.713 -283.023 212.912 C-283.744 212.201 -284.464 211.49 -285.207 210.757 C-285.844 210.127 -286.481 209.496 -287.138 208.847 C-288.625 207.5 -288.625 207.5 -289.625 207.5 Z " fill="#000000" transform="translate(510.625,49.5)"/>
<path d="M0 0 C2.562 2.062 2.562 2.062 4 5 C4.188 8.438 4.188 8.438 3 12 C-3.115 18.552 -11.485 23.178 -19 28 C-19.9 28.59 -20.8 29.181 -21.727 29.789 C-25.388 32.041 -27.44 32.982 -31.812 33.125 C-35.696 31.754 -37.064 30.63 -39 27 C-39.081 23.106 -38.453 21.517 -35.883 18.586 C-32.711 15.741 -29.501 13.716 -25.812 11.625 C-21.178 8.95 -16.821 6.197 -12.562 2.938 C-8.084 -0.259 -5.442 -1.126 0 0 Z " fill="#000000" transform="translate(146,404)"/>
<path d="M0 0 C2.722 1.934 3.751 3.306 4.875 6.438 C5.029 9.589 4.482 11.215 3 14 C0.742 15.406 0.742 15.406 -2.125 16.5 C-3.19 16.907 -4.255 17.315 -5.352 17.734 C-32.029 26.989 -32.029 26.989 -39.5 24 C-41.425 21.434 -41.483 19.189 -41.531 16.035 C-40.772 13.127 -39.246 11.961 -37 10 C-34.653 8.951 -34.653 8.951 -32.078 8.184 C-31.135 7.894 -30.191 7.605 -29.219 7.307 C-28.239 7.02 -27.259 6.733 -26.25 6.438 C-24.317 5.855 -22.385 5.27 -20.453 4.684 C-19.526 4.404 -18.599 4.125 -17.644 3.838 C-15.233 3.074 -12.887 2.227 -10.531 1.312 C-6.676 -0.12 -4.074 -0.548 0 0 Z " fill="#000000" transform="translate(90,435)"/>
<path d="M0 0 C2.438 1.562 2.438 1.562 4 4 C4.758 7.585 4.766 9.814 2.742 12.949 C0.929 15.096 -0.978 17.048 -3 19 C-3.757 19.743 -4.513 20.485 -5.293 21.25 C-12.066 27.603 -12.066 27.603 -17 28 C-22.639 25.723 -22.639 25.723 -24 23 C-24.375 19.688 -24.375 19.688 -24 16 C-21.801 13.598 -21.801 13.598 -19 11 C-18.57 10.564 -18.57 10.564 -16.395 8.359 C-15.542 7.498 -14.69 6.637 -13.812 5.75 C-13.383 5.314 -13.383 5.314 -11.207 3.109 C-7.545 -0.391 -5.023 -0.433 0 0 Z " fill="#000000" transform="translate(183,372)"/>
<path d="M0 0 C0.479 0 0.479 0 2.9 0.002 C3.894 0.018 4.887 0.034 5.91 0.051 C6.405 0.049 6.405 0.049 8.908 0.041 C13.773 0.077 17.517 0.224 21.973 2.363 C24.125 5.004 23.969 6.475 23.848 9.926 C22.973 13.363 22.973 13.363 21.232 15.053 C18.582 16.59 16.992 16.75 13.945 16.762 C13.467 16.764 13.467 16.764 11.045 16.773 C10.052 16.762 9.058 16.75 8.035 16.738 C7.54 16.744 7.54 16.744 5.037 16.773 C-4.086 16.737 -4.086 16.737 -8.027 13.363 C-9.582 10.254 -9.755 6.732 -9.027 3.363 C-6.051 0.582 -4.029 -0.014 0 0 Z " fill="#000000" transform="translate(9.02734375,447.63671875)"/>
</svg>
